<svg width="100" height="25" viewBox="0 0 100 25" fill="none" xmlns="http://www.w3.org/2000/svg">
  <g clip-path="url(#clip0_48_1525)">
    <path
      d="M3.65781 7.08743H9.44198V9.37044H4.43937C2.71961 9.37044 2.37633 9.46376 2.37633 11.6218V22.7219H0V10.7769C0 8.36892 1.21816 7.08743 3.65781 7.08743Z"
      fill="white" style="fill:white;fill-opacity:1;" />
    <path
      d="M16.2264 22.6902C13.1935 22.6902 10.2539 21.1271 10.2539 18.2808C10.2539 11.4018 22.6671 15.5296 22.5422 12.7466C22.4172 10.057 20.8541 9.05716 17.7578 9.05716C15.2249 9.05716 13.3185 9.74539 12.9119 12.465L10.7855 11.9967C11.2538 8.2756 14.6 6.96246 17.7278 6.99412C21.2923 7.02578 24.8252 8.43225 24.8252 13.1232V19.4073C24.8252 20.2206 25.0751 20.4389 25.7 20.4389H26.3883V22.7219H24.9185C23.4487 22.7219 22.5422 21.7203 22.5422 20.4089V18.9391C21.6373 21.502 18.8843 22.6902 16.2264 22.6902ZM16.6963 20.9088C19.4476 20.9088 22.5438 19.564 22.5438 17.1877V14.968C19.5426 16.5944 12.5686 14.1864 12.5686 18.2508C12.5686 20.0639 14.5383 20.9088 16.6963 20.9088Z"
      fill="white" style="fill:white;fill-opacity:1;" />
    <path
      d="M28.6074 22.7219V0.834991H30.9521V9.12047C30.9521 9.84037 30.7954 10.7469 30.5455 11.4335H30.6088C30.8271 10.7769 31.1721 9.87037 31.672 9.37044C33.1418 7.86899 35.7681 6.86913 37.8311 6.90079C42.2088 6.93245 44.9601 9.49542 44.9601 14.9046C44.9601 20.3139 42.2088 22.9085 37.8311 22.9085C35.7681 22.9085 33.1401 22.002 31.672 20.5638C31.1721 20.0639 30.8271 19.1574 30.6088 18.5008L30.5455 18.5325C30.7954 19.189 30.9521 20.0956 30.9521 20.8155V22.7235H28.6074V22.7219ZM36.9246 20.7521C40.8323 20.7521 42.6154 19.0957 42.6154 14.9046C42.6154 10.8086 40.739 9.05715 36.9246 8.99549C34.2666 8.96383 30.9521 11.1219 30.9521 14.9046C30.9538 18.6874 34.2983 20.7521 36.9246 20.7521Z"
      fill="white" style="fill:white;fill-opacity:1;" />
    <path
      d="M47.1191 22.7219V0.834991H49.4638V9.12047C49.4638 9.84037 49.3072 10.7469 49.0572 11.4335H49.1205C49.3388 10.7769 49.6838 9.87037 50.1837 9.37044C51.6535 7.86899 54.2798 6.86913 56.3428 6.90079C60.7205 6.93245 63.4718 9.49542 63.4718 14.9046C63.4718 20.3139 60.7205 22.9085 56.3428 22.9085C54.2798 22.9085 51.6518 22.002 50.1837 20.5638C49.6838 20.0639 49.3388 19.1574 49.1205 18.5008L49.0572 18.5325C49.3072 19.189 49.4638 20.0956 49.4638 20.8155V22.7235H47.1191V22.7219ZM55.4363 20.7521C59.3441 20.7521 61.1271 19.0957 61.1271 14.9046C61.1271 10.8086 59.2507 9.05715 55.4363 8.99549C52.7783 8.96383 49.4638 11.1219 49.4638 14.9046C49.4638 18.6874 52.81 20.7521 55.4363 20.7521Z"
      fill="white" style="fill:white;fill-opacity:1;" />
    <path
      d="M69.8477 9.18214V6.93079H70.2543C71.5991 6.93079 73.5055 4.5228 73.5055 2.49142L75.9135 2.4281C75.9135 2.4281 75.8818 3.95955 75.0386 5.36768C74.2254 6.64916 73.2872 6.83747 71.8807 7.1191L71.9124 7.18242C72.5373 7.05744 73.3505 6.93246 74.0071 6.93246H79.073V9.1838H75.4769V18.7824C75.4769 20.1572 76.2267 20.4389 77.1966 20.4389H79.8546V22.7219H77.7582C73.7871 22.7219 73.1305 21.4704 73.1305 18.1559V9.18214H69.8477Z"
      fill="white" style="fill:white;fill-opacity:1;" />
    <path
      d="M80.7891 0.834991H83.7903V1.86651H82.7904V4.0562H81.7889V1.86651H80.7891V0.834991ZM85.1034 0.834991L86.135 2.96135L87.1982 0.834991H88.2613V4.0562H87.2298V2.74305L86.5732 4.0562H85.7284L85.0401 2.71139V4.0562H84.0703V0.834991H85.1034Z"
      fill="white" style="fill:white;fill-opacity:1;" />
    <path d="M68.0361 7.08743H65.6914V22.7219H68.0361V7.08743Z" fill="white" style="fill:white;fill-opacity:1;" />
    <path d="M68.0966 0.834991H65.627V2.99302H68.0966V0.834991Z" fill="white" style="fill:white;fill-opacity:1;" />
  </g>
  <defs>
    <clipPath id="clip0_48_1525">
      <rect width="99.9857" height="23.33" fill="white" style="fill:white;fill-opacity:1;"
        transform="translate(0 0.834991)" />
    </clipPath>
  </defs>
</svg>
